<svg xmlns="http://www.w3.org/2000/svg" viewBox="0 0 640 512" fill="#003366">
  <!-- Font Awesome Pro 6.0.0 by @fontawesome - https://fontawesome.com License - https://fontawesome.com/license (Commercial License) -->
  <path d="M506.1 127.1c-17.97-20.17-61.46-61.65-122.7-71.1c-22.5-3.354-45.39 3.606-63.41 18.21C302 60.47 279.1 53.42 256.5 56.86C176.8 69.17 126.7 136.2 124.5 139.1c-7.844 10.69-5.531 25.72 5.125 33.57c4.297 3.156 9.312 4.672 14.28 4.672c7.375 0 14.66-3.328 19.38-9.594c.4062-.5626 43.5-57.28 104.9-66.58c12.22-1.842 24.22 1.367 33.58 8.967l-57.05 43.66c-10.41 7.982-12.56 22.77-4.545 33.18C246.2 396.6 241.1 399.1 246.9 400c2.984 0 6-.7187 8.859-2.234l60.07-32.12l58.44 32.94c2.719 1.531 5.703 2.266 8.688 2.266c6.36 0 12.53-3.422 15.77-9.467c7.733-13.1 3.422-29.75-9.516-37.45l-166.7-56.08l139.7-106.9c8.75-6.703 19.77-9.124 30.36-6.891c43.44 9.266 72.09 32.96 85.94 49.22c-14.22 30.09-49.5 92.47-114.3 102.1c-14.92 2.203-25.36 16.08-23.19 31c1.984 13.48 13.61 23.39 26.89 23.39c1.281 0 2.594-.0938 3.906-.2813c92.04-13.6 137.2-100.9 155.4-135.2C532.2 236.8 553.3 192.5 554 191c7.5-14.5 1.8-32.3-12.6-39.8C533.8 148.8 520.6 148.6 510.7 151.2z"/>
</svg> 